# Blender 5.0.1
# www.blender.org
mtllib wall_1.mtl
o Плоскость.013
v 15.900721 0.000000 0.163918
v 15.900721 0.000000 -0.163918
v 13.879679 0.000000 0.163918
v 13.879679 0.000000 -0.163918
v 13.879679 5.039877 0.163918
v 15.900721 5.039877 0.163918
v 15.900721 5.039877 -0.163918
v 13.879679 5.039877 -0.163918
v 11.858637 0.000000 0.163918
v 11.858637 0.000000 -0.163918
v 11.858637 5.039877 0.163918
v 11.858637 5.039877 -0.163918
vn -0.0000 -1.0000 -0.0000
vn -0.0000 1.0000 -0.0000
vn 1.0000 -0.0000 -0.0000
vn -1.0000 -0.0000 -0.0000
vn -0.0000 -0.0000 1.0000
vn -0.0000 -0.0000 -1.0000
vt 0.666667 0.000000
vt 0.666667 1.000000
vt 1.000000 1.000000
vt 1.000000 0.000000
s 0
f 3/1/1 4/2/1 2/3/1 1/4/1
f 5/1/2 6/4/2 7/3/2 8/2/2
f 1/4/3 2/3/3 7/3/3 6/4/3
f 4/2/4 3/1/4 5/1/4 8/2/4
f 3/1/5 1/4/5 6/4/5 5/1/5
f 2/3/6 4/2/6 8/2/6 7/3/6
f 3/1/1 9/4/1 10/3/1 4/2/1
f 5/1/2 8/2/2 12/3/2 11/4/2
f 9/4/4 11/4/4 12/3/4 10/3/4
f 3/1/5 5/1/5 11/4/5 9/4/5
f 10/3/6 12/3/6 8/2/6 4/2/6
