# Blender 5.0.1
# www.blender.org
mtllib house.mtl
o Плоскость.003
v -4.016686 0.000000 0.163918
v -4.016686 0.000000 -0.163918
v -4.954537 0.000000 0.163918
v -4.954537 0.000000 -0.163918
v -4.954537 5.039877 0.163918
v -4.016686 5.039877 0.163918
v -4.016686 5.039877 -0.163918
v -4.954537 5.039877 -0.163918
v -4.016686 3.999545 -0.163918
v -4.016686 3.999545 0.163918
v -4.954537 3.999545 0.163918
v -4.954537 3.999545 -0.163918
v -6.807005 5.039877 0.163918
v -6.807005 5.039877 -0.163918
v -6.807005 3.999545 0.163918
v -6.807005 3.999545 -0.163918
v -4.016686 2.257430 0.163918
v -4.954537 2.257430 -0.163918
v -4.016686 2.257430 -0.163918
v -4.954537 2.257430 0.163918
v -9.597323 0.000000 0.163918
v -9.597323 0.000000 -0.163918
v -8.659472 0.000000 0.163918
v -8.659472 0.000000 -0.163918
v -8.659472 5.039877 0.163918
v -9.597323 5.039877 0.163918
v -9.597323 5.039877 -0.163918
v -8.659472 5.039877 -0.163918
v -9.597323 3.999545 -0.163918
v -9.597323 3.999545 0.163918
v -8.659472 3.999545 0.163918
v -8.659472 3.999545 -0.163918
v -9.597323 2.257430 0.163918
v -8.659472 2.257430 -0.163918
v -9.597323 2.257430 -0.163918
v -8.659472 2.257430 0.163918
vn -0.0000 -1.0000 -0.0000
vn -0.0000 1.0000 -0.0000
vn 1.0000 -0.0000 -0.0000
vn -0.0000 -0.0000 1.0000
vn -0.0000 -0.0000 -1.0000
vn -1.0000 -0.0000 -0.0000
vt 0.666667 0.000000
vt 0.666667 1.000000
vt 1.000000 1.000000
vt 1.000000 0.000000
s 0
f 3/1/1 4/2/1 2/3/1 1/4/1
f 5/1/2 6/4/2 7/3/2 8/2/2
f 10/4/3 9/3/3 7/3/3 6/4/3
f 11/1/4 10/4/4 6/4/4 5/1/4
f 5/1/2 8/2/2 14/2/2 13/1/2
f 9/3/5 12/2/5 8/2/5 7/3/5
f 19/3/5 18/2/5 12/2/5 9/3/5
f 20/1/4 17/4/4 10/4/4 11/1/4
f 18/2/6 20/1/6 11/1/6 12/2/6
f 17/4/3 19/3/3 9/3/3 10/4/3
f 16/2/6 15/1/6 13/1/6 14/2/6
f 8/2/5 12/2/5 16/2/5 14/2/5
f 11/1/4 5/1/4 13/1/4 15/1/4
f 12/2/1 11/1/1 15/1/1 16/2/1
f 1/4/3 2/3/3 19/3/3 17/4/3
f 4/2/6 3/1/6 20/1/6 18/2/6
f 3/1/4 1/4/4 17/4/4 20/1/4
f 2/3/5 4/2/5 18/2/5 19/3/5
f 23/1/1 21/4/1 22/3/1 24/2/1
f 25/1/2 28/2/2 27/3/2 26/4/2
f 30/4/6 26/4/6 27/3/6 29/3/6
f 31/1/4 25/1/4 26/4/4 30/4/4
f 25/1/2 13/1/2 14/2/2 28/2/2
f 29/3/5 27/3/5 28/2/5 32/2/5
f 35/3/5 29/3/5 32/2/5 34/2/5
f 36/1/4 31/1/4 30/4/4 33/4/4
f 34/2/3 32/2/3 31/1/3 36/1/3
f 33/4/6 30/4/6 29/3/6 35/3/6
f 28/2/5 14/2/5 16/2/5 32/2/5
f 31/1/4 15/1/4 13/1/4 25/1/4
f 32/2/1 16/2/1 15/1/1 31/1/1
f 21/4/6 33/4/6 35/3/6 22/3/6
f 24/2/3 34/2/3 36/1/3 23/1/3
f 23/1/4 36/1/4 33/4/4 21/4/4
f 22/3/5 35/3/5 34/2/5 24/2/5
