# Blender 5.0.1
# www.blender.org
mtllib tree.mtl
o Cube
v 0.221658 9.679267 -0.227538
v 0.347983 -0.512784 -0.357214
v 0.221658 9.679267 0.227538
v 0.347983 -0.512784 0.357214
v -0.221658 9.679267 -0.227538
v -0.347983 -0.512784 -0.357214
v -0.221658 9.679267 0.227538
v -0.347983 -0.512784 0.357214
v -0.481048 -0.512786 0.000000
v 0.000000 -0.512786 -0.481048
v 0.339462 4.325790 -0.348467
v -0.339462 4.325791 0.348467
v 0.339462 4.325790 0.348467
v -0.339462 4.325790 -0.348467
v 0.000000 9.679268 0.306418
v 0.306418 9.679268 0.000000
v 0.000000 -0.512786 0.481048
v -0.306418 9.679268 0.000000
v 0.000000 9.679268 -0.306418
v 0.481048 -0.512786 0.000000
v 0.000000 4.325790 -0.469268
v 0.469268 4.325790 0.000000
v 0.000000 -0.512786 0.000000
v -0.469268 4.325790 0.000000
v 0.000000 4.325790 0.469268
v 0.000000 10.280294 0.000000
v -0.339462 6.745078 0.348467
v 0.339462 6.745078 -0.348467
v 0.339462 6.745078 0.348467
v -0.339462 6.745078 -0.348467
v 0.000000 6.745079 -0.469268
v 0.469268 6.745079 0.000000
v -0.469268 6.745079 0.000000
v 0.000000 6.745079 0.469268
v -0.309913 7.954721 0.318135
v 0.309913 7.954721 -0.318135
v 0.309913 7.954721 0.318135
v -0.309913 7.954721 -0.318135
v 0.000000 7.954723 -0.428421
v 0.428421 7.954723 0.000000
v -0.428421 7.954723 0.000000
v 0.000000 7.954723 0.428421
v -0.276224 8.816994 0.283552
v 0.276224 8.816994 -0.283552
v 0.276224 8.816994 0.283552
v -0.276224 8.816994 -0.283552
v 0.000000 8.816996 -0.381849
v 0.381849 8.816996 0.000000
v -0.381849 8.816996 0.000000
v 0.000000 8.816996 0.381849
vn -0.8456 0.4311 0.3150
vn -0.3341 0.0821 0.9389
vn -0.9340 0.0817 -0.3479
vn -0.0000 -1.0000 -0.0000
vn 0.9340 0.0817 0.3479
vn 0.3341 0.0821 -0.9389
vn 0.3353 0.0023 -0.9421
vn -0.3353 0.0023 -0.9421
vn -0.3341 0.0821 -0.9389
vn 0.9371 0.0023 0.3491
vn 0.9371 0.0023 -0.3491
vn 0.9340 0.0817 -0.3479
vn -0.9371 0.0023 -0.3491
vn -0.9371 0.0023 0.3491
vn -0.9340 0.0817 0.3479
vn -0.3353 0.0023 0.9421
vn 0.3353 0.0023 0.9421
vn 0.3341 0.0821 0.9389
vn 0.8456 0.4311 0.3150
vn 0.8456 0.4311 -0.3150
vn -0.3022 0.4330 -0.8492
vn 0.3353 -0.0000 0.9421
vn -0.9371 -0.0000 0.3491
vn 0.9371 -0.0000 -0.3491
vn -0.3353 -0.0000 -0.9421
vn 0.3353 -0.0000 -0.9421
vn 0.9371 -0.0000 0.3491
vn -0.9371 -0.0000 -0.3491
vn -0.3353 -0.0000 0.9421
vn 0.3351 0.0318 0.9416
vn -0.9366 0.0316 0.3489
vn 0.9366 0.0316 -0.3489
vn -0.3351 0.0318 -0.9416
vn 0.3351 0.0318 -0.9416
vn 0.9366 0.0316 0.3489
vn -0.9366 0.0316 -0.3489
vn -0.3351 0.0318 0.9416
vn 0.3348 0.0508 0.9409
vn -0.3022 0.4330 0.8492
vn 0.3022 0.4330 0.8492
vn 0.3022 0.4330 -0.8492
vn -0.8456 0.4311 -0.3150
vn -0.9359 0.0505 0.3486
vn 0.9359 0.0505 -0.3486
vn -0.3348 0.0508 -0.9409
vn 0.3348 0.0508 -0.9409
vn 0.9359 0.0505 0.3486
vn -0.9359 0.0505 -0.3486
vn -0.3348 0.0508 0.9409
vt 0.750000 0.625000
vt 0.875000 0.625000
vt 0.875000 0.750000
vt 0.609375 0.875000
vt 0.625000 0.875000
vt 0.625000 1.000000
vt 0.609375 1.000000
vt 0.609375 0.125000
vt 0.625000 0.125000
vt 0.625000 0.250000
vt 0.609375 0.250000
vt 0.250000 0.625000
vt 0.375000 0.625000
vt 0.375000 0.750000
vt 0.250000 0.750000
vt 0.609375 0.625000
vt 0.625000 0.625000
vt 0.625000 0.750000
vt 0.609375 0.750000
vt 0.609375 0.375000
vt 0.625000 0.375000
vt 0.625000 0.500000
vt 0.609375 0.500000
vt 0.375000 0.375000
vt 0.500000 0.375000
vt 0.500000 0.500000
vt 0.375000 0.500000
vt 0.375000 0.250000
vt 0.500000 0.250000
vt 0.500000 0.625000
vt 0.500000 0.750000
vt 0.125000 0.625000
vt 0.125000 0.750000
vt 0.125000 0.500000
vt 0.250000 0.500000
vt 0.375000 0.125000
vt 0.500000 0.125000
vt 0.375000 0.000000
vt 0.500000 0.000000
vt 0.609375 0.000000
vt 0.625000 0.000000
vt 0.375000 0.875000
vt 0.500000 0.875000
vt 0.500000 1.000000
vt 0.375000 1.000000
vt 0.750000 0.500000
vt 0.875000 0.500000
vt 0.562500 0.750000
vt 0.562500 0.875000
vt 0.562500 0.000000
vt 0.562500 0.125000
vt 0.562500 0.500000
vt 0.562500 0.625000
vt 0.562500 0.250000
vt 0.562500 0.375000
vt 0.562500 1.000000
vt 0.593750 0.750000
vt 0.593750 0.875000
vt 0.593750 0.000000
vt 0.593750 0.125000
vt 0.593750 0.500000
vt 0.593750 0.625000
vt 0.593750 0.250000
vt 0.593750 0.375000
vt 0.593750 1.000000
vt 0.750000 0.750000
s 0
usemtl Material
f 26/1/1 18/2/1 7/3/1
f 50/4/2 15/5/2 7/6/2 43/7/2
f 49/8/3 18/9/3 5/10/3 46/11/3
f 23/12/4 20/13/4 4/14/4 17/15/4
f 48/16/5 16/17/5 3/18/5 45/19/5
f 47/20/6 19/21/6 1/22/6 44/23/6
f 10/24/7 21/25/7 11/26/7 2/27/7
f 6/28/8 14/29/8 21/25/8 10/24/8
f 46/11/9 5/10/9 19/21/9 47/20/9
f 20/13/10 22/30/10 13/31/10 4/14/10
f 2/27/11 11/26/11 22/30/11 20/13/11
f 44/23/12 1/22/12 16/17/12 48/16/12
f 9/32/4 23/12/4 17/15/4 8/33/4
f 6/34/4 10/35/4 23/12/4 9/32/4
f 10/35/4 2/27/4 20/13/4 23/12/4
f 9/36/13 24/37/13 14/29/13 6/28/13
f 8/38/14 12/39/14 24/37/14 9/36/14
f 43/40/15 7/41/15 18/9/15 49/8/15
f 17/42/16 25/43/16 12/44/16 8/45/16
f 4/14/17 13/31/17 25/43/17 17/42/17
f 45/19/18 3/18/18 15/5/18 50/4/18
f 16/17/19 26/1/19 3/18/19
f 1/22/20 26/1/20 16/17/20
f 19/46/21 5/47/21 26/1/21
f 13/31/22 29/48/22 34/49/22 25/43/22
f 12/39/23 27/50/23 33/51/23 24/37/23
f 11/26/24 28/52/24 32/53/24 22/30/24
f 14/29/25 30/54/25 31/55/25 21/25/25
f 21/25/26 31/55/26 28/52/26 11/26/26
f 22/30/27 32/53/27 29/48/27 13/31/27
f 24/37/28 33/51/28 30/54/28 14/29/28
f 25/43/29 34/49/29 27/56/29 12/44/29
f 29/48/30 37/57/30 42/58/30 34/49/30
f 27/50/31 35/59/31 41/60/31 33/51/31
f 28/52/32 36/61/32 40/62/32 32/53/32
f 30/54/33 38/63/33 39/64/33 31/55/33
f 31/55/34 39/64/34 36/61/34 28/52/34
f 32/53/35 40/62/35 37/57/35 29/48/35
f 33/51/36 41/60/36 38/63/36 30/54/36
f 34/49/37 42/58/37 35/65/37 27/56/37
f 37/57/38 45/19/38 50/4/38 42/58/38
f 7/3/39 15/66/39 26/1/39
f 3/18/40 26/1/40 15/66/40
f 26/1/41 1/22/41 19/46/41
f 26/1/42 5/47/42 18/2/42
f 35/59/43 43/40/43 49/8/43 41/60/43
f 36/61/44 44/23/44 48/16/44 40/62/44
f 38/63/45 46/11/45 47/20/45 39/64/45
f 39/64/46 47/20/46 44/23/46 36/61/46
f 40/62/47 48/16/47 45/19/47 37/57/47
f 41/60/48 49/8/48 46/11/48 38/63/48
f 42/58/49 50/4/49 43/7/49 35/65/49
